<svg id="Layer_1" data-name="Layer 1" xmlns="http://www.w3.org/2000/svg" xmlns:xlink="http://www.w3.org/1999/xlink" viewBox="0 0 453.67 97.26"><defs><linearGradient id="linear-gradient" x1="-23.12" y1="56.14" x2="471.46" y2="56.14" gradientUnits="userSpaceOnUse"><stop offset="0" stop-color="#fff"/><stop offset="1"/></linearGradient><linearGradient id="Orange_Yellow" x1="348.04" y1="11.19" x2="370.42" y2="11.19" gradientUnits="userSpaceOnUse"><stop offset="0" stop-color="#fff33b"/><stop offset="0.04" stop-color="#fee72e"/><stop offset="0.12" stop-color="#fed51b"/><stop offset="0.2" stop-color="#fdca10"/><stop offset="0.28" stop-color="#fdc70c"/><stop offset="0.67" stop-color="#f3903f"/><stop offset="0.89" stop-color="#ed683c"/><stop offset="1" stop-color="#e93e3a"/></linearGradient></defs><path d="M38.25,66.81V70a13.9,13.9,0,0,1-4.18,10.14A13.72,13.72,0,0,1,24,84.31H2.14V27.86H24A14.31,14.31,0,0,1,38.25,42.21v3A14.1,14.1,0,0,1,33.37,56,14.28,14.28,0,0,1,38.25,66.81ZM30.94,45.15V42.21a7,7,0,0,0-2.1-5.09,6.82,6.82,0,0,0-5-2.13H9.28V52.28H23.81a6.9,6.9,0,0,0,5-2.1A6.81,6.81,0,0,0,30.94,45.15Zm0,24.8V67a7,7,0,0,0-2.1-5.1,6.85,6.85,0,0,0-5-2.12H9.36V77.09H23.81a6.9,6.9,0,0,0,5-2.1A6.82,6.82,0,0,0,30.94,70Z" transform="translate(23.12 -2.43)" style="fill:url(#linear-gradient)"/><path d="M83.66,84.23H61.91a3.57,3.57,0,0,1,0-7.14h7.31V50.46H62a3.41,3.41,0,0,1-2.53-1.07,3.45,3.45,0,0,1-1-2.5,3.6,3.6,0,0,1,1-2.57A3.35,3.35,0,0,1,62,43.23H72.87a3.35,3.35,0,0,1,2.53,1.09,3.6,3.6,0,0,1,1,2.57v30.2h7.14a3.6,3.6,0,0,1,2.57,1,3.53,3.53,0,0,1,0,5.06A3.49,3.49,0,0,1,83.66,84.23ZM69.13,24.71h3.74a3.55,3.55,0,0,1,3.57,3.57v3.06a3.6,3.6,0,0,1-1,2.57A3.38,3.38,0,0,1,72.87,35H69.05a3.4,3.4,0,0,1-2.57-1.1,3.33,3.33,0,0,1-1-2.47l.09-3.14a3.55,3.55,0,0,1,3.56-3.57Z" transform="translate(23.12 -2.43)" style="fill:url(#linear-gradient)"/><path d="M143.35,56.19V71.27q0,4.8-4.53,8.88t-9.32,4.08h-8.37q-4.89,0-9.35-4.14c-3-2.77-4.46-5.7-4.46-8.82V56.19q0-4.68,4.36-8.81a13.46,13.46,0,0,1,9.45-4.15h8.37q4.8-.07,9.32,4T143.35,56.19Zm-28.8.3V70.93A3.78,3.78,0,0,0,116,74l2.67,2.3a3.75,3.75,0,0,0,2.51.76h8.28a4.88,4.88,0,0,0,3.32-1.32l2.16-1.91A3.39,3.39,0,0,0,136.21,71V56.57a3.72,3.72,0,0,0-1.32-3.14l-2.5-2a4.5,4.5,0,0,0-3-1.06H122a5.51,5.51,0,0,0-3.74,1.15l-2.42,2.08A3.58,3.58,0,0,0,114.55,56.49Z" transform="translate(23.12 -2.43)" style="fill:url(#linear-gradient)"/><path d="M179.53,77.18h12.88a3.56,3.56,0,0,1,2.57,1,3.47,3.47,0,0,1,0,5,3.56,3.56,0,0,1-2.57,1H179.07a10.33,10.33,0,0,1-5.26-1.61A9.75,9.75,0,0,1,170,79.09l-8.24-15.93a16.18,16.18,0,0,1-1.65-7,14.41,14.41,0,0,1,1.57-6.93L170,33.42a11.16,11.16,0,0,1,3.7-3.89,8.8,8.8,0,0,1,4.84-1.67h14.11a3.38,3.38,0,0,1,2.52,1.06,3.44,3.44,0,0,1,1.05,2.5,3.58,3.58,0,0,1-1,2.57,3.37,3.37,0,0,1-2.53,1.09H179.08a3.15,3.15,0,0,0-2.76,2L168.4,51.85a8.54,8.54,0,0,0-.92,4.13,9.12,9.12,0,0,0,1,4.42l7.56,14.53A3.58,3.58,0,0,0,179.53,77.18Z" transform="translate(23.12 -2.43)" style="fill:url(#linear-gradient)"/><path d="M212.42,80.74V31.42a3.33,3.33,0,0,1,1-2.46,3.58,3.58,0,0,1,6.1,2.55v18l5.73-3.74a13.52,13.52,0,0,1,7-2.46h4.42a10.32,10.32,0,0,1,7.52,3.12A10.79,10.79,0,0,1,247.47,54l.89,26.72a3.24,3.24,0,0,1-1,2.53,3.49,3.49,0,0,1-2.55,1,3.32,3.32,0,0,1-2.51-1.08,3.7,3.7,0,0,1-1.06-2.49l-.89-26.8a3.64,3.64,0,0,0-1.1-2.51,3.47,3.47,0,0,0-2.55-1.06h-4a5.52,5.52,0,0,0-3,1.06l-10.15,6.63V80.74a3.57,3.57,0,1,1-7.14,0Z" transform="translate(23.12 -2.43)" style="fill:url(#linear-gradient)"/><path d="M275.69,58.57h14a15.71,15.71,0,0,1,3.31.51L292.92,54a3.55,3.55,0,0,0-3.57-3.56H275.77a3.45,3.45,0,0,1-2.52-1.07,3.4,3.4,0,0,1-1.06-2.5,3.55,3.55,0,0,1,3.57-3.57h13.58a10.33,10.33,0,0,1,7.55,3.1,10.74,10.74,0,0,1,3.25,7.6l.9,26.72A3.39,3.39,0,0,1,300,83.27a3.43,3.43,0,0,1-2.5,1,3.52,3.52,0,0,1-2.59-1,3.39,3.39,0,0,1-1.07-2.53l-6,3.57H275.69a10.74,10.74,0,0,1-10.81-10.79V69.36a10.81,10.81,0,0,1,10.81-10.79Zm17.85,13.89-.22-3a3.53,3.53,0,0,0-1.06-2.54,3.42,3.42,0,0,0-2.51-1H275.68a3.55,3.55,0,0,0-3.57,3.56v4A3.64,3.64,0,0,0,275.68,77h10.08Z" transform="translate(23.12 -2.43)" style="fill:url(#linear-gradient)"/><path d="M387,51.6l-9.75,6.33V80.74a3.57,3.57,0,0,1-7.14,0V46.89a3.6,3.6,0,0,1,1-2.57,3.46,3.46,0,0,1,5,0,3.58,3.58,0,0,1,1.06,2.57v2.38l6.51-4a13.51,13.51,0,0,1,7.4-2.09h3.32a10.21,10.21,0,0,1,7.36,3,10.59,10.59,0,0,1,3.28,7.43l1,27.06a3.27,3.27,0,0,1-1,2.51,3.44,3.44,0,0,1-2.55,1.06,3.6,3.6,0,0,1-2.46-1,3.44,3.44,0,0,1-1.1-2.62l-1.07-26.63c-.08-2.49-1.39-3.74-3.91-3.74h-3.49A6.45,6.45,0,0,0,387,51.6Z" transform="translate(23.12 -2.43)" style="fill:url(#linear-gradient)"/><text transform="translate(16.64 81.89)" style="font-size:87px;font-family:OCRAExtended, OCR A Extended">BioCha<tspan x="315.29" y="0" xml:space="preserve" style="fill:#231f20"> n</tspan></text><path d="M327.45,34.84c-4.07,4.64-3.18,12-3.3,18.38.39-.44.77-1.32,1.36-2A11.2,11.2,0,0,1,329,48.57c0-3.49-.3-7.2,2-9.85a8.42,8.42,0,0,1,4.9-2.47c3.94,0,7.14,3.4,7.2,7.77l.15,11.35a9.35,9.35,0,0,1-2.09,5.48c-2.72,3.09-5.88,2.7-9,1.43l.08,5.68c4.55,1.46,9.08,1.18,12.57-2.79A13.07,13.07,0,0,0,348,55.74l-.16-11.35c-.05-3.93-1.08-7.63-3.68-10.43a11.94,11.94,0,0,0-16.75.88Zm15.86,35.59.05,3.93a9.39,9.39,0,0,1-2.09,5.48,8.3,8.3,0,0,1-4.9,2.47c-3.94,0-7.34-3.61-7.2-7.76L329,63.2a9.35,9.35,0,0,1,2.09-5.49c2.72-3.09,6.08-2.48,9.05-1.43l-.08-5.67c-4.55-1.47-9.08-1.19-12.57,2.79a13.06,13.06,0,0,0-3.23,9.43l.16,11.34c.1,7.43,5.5,13.25,12,12.94,6.3-.08,11.94-6,11.45-13l-.11-8.3A8.59,8.59,0,0,1,346.23,68a7.8,7.8,0,0,1-2.92,2.44Z" transform="translate(23.12 -2.43)" style="fill:#010101"/><circle cx="359.23" cy="11.19" r="11.19" style="fill:url(#Orange_Yellow)"/></svg>